<?xml version="1.0" encoding="UTF-8"?>
<svg width="181px" height="197px" viewBox="0 0 181 197" version="1.1" xmlns="http://www.w3.org/2000/svg" xmlns:xlink="http://www.w3.org/1999/xlink">
    <!-- Generator: Sketch 55.2 (78181) - https://sketchapp.com -->
    <title>iconfinder_Bicep_3776469</title>
    <desc>Created with Sketch.</desc>
    <g id="Page-1" stroke="none" stroke-width="1" fill="none" fill-rule="evenodd">
        <g id="IconLand" transform="translate(-845.000000, -581.000000)" fill="#DEC115" fill-rule="nonzero">
            <g id="iconfinder_Bicep_3776469" transform="translate(845.000000, 581.000000)">
                <path d="M78.6953664,31.52 L78.6953664,7.88 C78.6953664,3.52799617 82.2186782,0 86.5649028,0 L141.651657,0 C145.303528,0 148.475577,2.51565044 149.311999,6.07517008 L180.790145,140.03517 C181.601612,143.488494 180.00846,147.059027 176.898147,148.757817 C173.33564,150.703586 161.385981,157.321569 159.884171,158.147261 C108.657247,186.311741 73.1498174,197 7.86953901,197 C3.52331408,197 0,193.472003 0,189.12 C0,184.767997 3.52331408,181.24 7.86953901,181.24 C70.2491402,181.24 103.246055,171.307443 152.309086,144.332668 C153.31565,143.77926 159.290334,140.471616 164.100083,137.817235 L135.418869,15.76 L94.4344391,15.76 L94.4344391,31.52 C94.4344391,35.8675162 97.9622319,39.4 102.303976,39.4 L110.173512,39.4 C114.519736,39.4 118.043048,42.9279962 118.043048,47.28 L118.043048,106.83704 C118.043048,113.339525 110.621588,117.043675 105.436189,113.129293 C93.1879471,103.883276 78.4258655,98.80732 62.8933373,98.80732 C44.1272285,98.80732 26.5412038,106.157916 13.3761571,119.069944 C10.2712183,122.115209 5.2887713,122.063487 2.24755009,118.95442 C-0.793671116,115.845353 -0.74201784,110.85628 2.36292088,107.811016 C18.4383475,92.0445432 39.9638638,83.04732 62.8933373,83.04732 C76.813728,83.04732 90.2411748,86.3855465 102.303976,92.6092469 L102.303976,55.16 C89.2697828,55.16 78.6953664,44.5715238 78.6953664,31.52 Z" id="Page-1"></path>
            </g>
        </g>
    </g>
</svg>