<?xml version="1.0" encoding="UTF-8"?>
<svg width="375px" height="255px" viewBox="0 0 375 255" version="1.1" xmlns="http://www.w3.org/2000/svg" xmlns:xlink="http://www.w3.org/1999/xlink">
    <!-- Generator: Sketch 55.2 (78181) - https://sketchapp.com -->
    <title>iconfinder_butt_1565332</title>
    <desc>Created with Sketch.</desc>
    <g id="Page-1" stroke="none" stroke-width="1" fill="none" fill-rule="evenodd">
        <g id="IconLand" transform="translate(-845.000000, -586.000000)" fill="#DEC115" fill-rule="nonzero">
            <g id="iconfinder_butt_1565332" transform="translate(845.000000, 586.000000)">
                <path d="M365.31294,0.00508170586 C359.966253,0.00508170586 355.636046,4.32961339 355.636046,9.67556796 L355.636046,12.5162415 L355.636046,61.4937226 L353.369294,80.8092866 C344.927423,115.451275 313.629988,141.276505 276.391223,141.276505 C239.172788,141.276505 207.880435,115.451275 199.428399,80.8092866 L197.095576,60.9245715 C197.075247,60.7721204 197.024423,60.6704862 196.999011,60.5434436 C196.999011,60.5231168 196.999011,60.5231168 196.999011,60.5231168 C196.978681,60.3909924 196.953269,60.2639498 196.927857,60.1064169 C196.902445,59.9793743 196.877033,59.8574133 196.836374,59.725289 C196.816044,59.5728378 196.800797,59.4407134 196.760138,59.3136708 C196.74489,59.2679354 196.704231,59.2120367 196.688984,59.1561379 C196.643242,58.9731965 196.582254,58.825827 196.521265,58.6733758 C196.424699,58.4396174 196.323051,58.2058589 196.216321,57.9771821 C196.216321,57.9517736 196.211238,57.9517736 196.211238,57.9314468 L196.211238,57.9314468 C196.12992,57.7485054 196.053684,57.5960542 195.9622,57.4385213 C195.870717,57.2809884 195.784316,57.133619 195.682668,56.9811678 C195.682668,56.9557593 195.682668,56.9557593 195.662339,56.9557593 C195.591185,56.8490434 195.535279,56.7474093 195.464125,56.6457752 C195.392971,56.5390594 195.337065,56.4374253 195.245582,56.3307094 C195.143934,56.18334 195.037203,56.0258071 194.920308,55.8682742 C194.813577,55.7463133 194.681435,55.6192706 194.56454,55.492228 C194.401903,55.3143683 194.229101,55.1314269 194.046135,54.9789757 L194.025805,54.9535672 L194.025805,54.9535672 C193.88858,54.8214428 193.751355,54.7045636 193.593801,54.5673575 C193.471823,54.4657234 193.319351,54.369171 193.202456,54.2624552 C193.004242,54.1354125 192.816193,54.0083699 192.607815,53.8813272 C192.587485,53.850837 192.572238,53.850837 192.556991,53.8355919 L192.556991,53.8355919 C192.389271,53.728876 192.221552,53.6221602 192.053833,53.5205261 C191.906443,53.4392188 191.748889,53.3934835 191.591334,53.3172579 C191.581169,53.3172579 191.581169,53.3172579 191.581169,53.3172579 C191.428697,53.2410323 191.260978,53.1648067 191.113588,53.1139896 C191.017023,53.0580909 190.935704,53.0326823 190.849303,53.0123555 C190.686666,52.9361299 190.518947,52.8599043 190.335981,52.8090873 C190.153014,52.7531885 189.985295,52.72778 189.802328,52.6769629 L189.781999,52.6769629 C189.532961,52.6007373 189.263594,52.5499203 188.994226,52.5245118 L188.994226,52.5245118 C188.851919,52.5041849 188.724859,52.4482862 188.602881,52.4177959 C188.546975,52.4177959 188.511398,52.4177959 188.465657,52.4177959 C188.267443,52.3923874 188.079394,52.3923874 187.88118,52.3923874 C187.749038,52.3923874 187.616895,52.3720606 187.47967,52.3720606 L187.47967,52.3720606 C187.332281,52.3720606 187.215385,52.3923874 187.078161,52.3923874 C186.879947,52.3923874 186.691898,52.3923874 186.478437,52.4177959 C186.432695,52.4177959 186.392036,52.4177959 186.351377,52.4177959 C186.219235,52.4432045 186.08201,52.4991032 185.949867,52.5245118 C185.6805,52.5448386 185.421297,52.6007373 185.167177,52.6769629 C184.974046,52.72778 184.801244,52.7531885 184.608113,52.8090873 C184.425146,52.8802312 184.262509,52.9361299 184.084625,53.0123555 C183.845752,53.0936628 183.617044,53.1902152 183.388336,53.2918493 C183.210452,53.3985652 183.042733,53.4392188 182.885178,53.5459346 C182.702212,53.6221602 182.559905,53.728876 182.387103,53.8355919 C182.178724,53.9575528 181.975428,54.1150857 181.787379,54.2370466 C181.63999,54.3742527 181.467188,54.4657234 181.340128,54.5673575 C181.202903,54.7045636 181.055513,54.8214428 180.913206,54.9535672 C180.745487,55.1365086 180.567603,55.2889597 180.404966,55.4668194 C180.272823,55.6192706 180.135599,55.7463133 180.018703,55.8987644 C179.901808,56.0258071 179.80016,56.18334 179.698512,56.3307094 C179.535875,56.5390594 179.408815,56.7474093 179.27159,56.9506776 C179.180107,57.1031287 179.068294,57.2555799 178.971728,57.4334396 C178.880245,57.5858908 178.819256,57.7637505 178.727773,57.9263651 C178.631207,58.1804504 178.529559,58.4142088 178.432994,58.6378039 C178.372005,58.8207453 178.305934,58.9681148 178.244945,59.1510562 C178.229697,59.206955 178.204285,59.257772 178.189038,59.3085891 C178.153461,59.4356317 178.133132,59.5880829 178.092473,59.7202073 C178.031484,59.9692108 177.985742,60.2334595 177.950165,60.5129534 C177.924753,60.6349143 177.884094,60.7670387 177.858682,60.9194898 L175.530942,80.8296134 C167.094153,115.481766 135.8018,141.276505 98.5782826,141.276505 C61.3598477,141.276505 30.0725767,115.481766 21.6052938,80.8346951 L19.3334598,61.4632324 L19.3334598,12.5111598 L19.3334598,9.67048625 C19.3334598,4.32453169 15.0032527,0 9.67689472,0 C4.32004229,0 0,4.32453169 0,9.67048625 L0,62.0527102 C0,69.624452 0.884338068,76.9929255 2.52087173,84.0768234 L21.5595522,246.457652 C22.1389461,251.391989 26.3166811,255 31.1398813,255 C31.5261439,255 31.9022417,254.979673 32.2834219,254.949183 C37.6046975,254.31397 41.4012523,249.521921 40.765952,244.201375 L27.3941505,130.106915 C45.3502792,148.883818 70.6098206,160.602232 98.583365,160.602232 C126.551827,160.602232 151.821533,148.883818 169.777662,130.106915 L156.40586,244.201375 C155.780725,249.521921 159.57728,254.308888 164.873143,254.949183 C165.259406,254.974591 165.640586,255 166.016684,255 C170.850049,255 175.037949,251.391989 175.61226,246.457652 L187.505082,145.077621 L199.38774,246.457652 C199.967134,251.391989 204.139786,255 208.973151,255 C209.359414,255 209.725347,254.979673 210.116692,254.949183 C215.42272,254.31397 219.22944,249.521921 218.59414,244.201375 L205.207091,130.106915 C223.173384,148.85841 248.448173,160.602232 276.40647,160.602232 C304.380015,160.602232 329.654803,148.85841 347.621097,130.106915 L334.23913,244.201375 C333.62416,249.521921 337.400385,254.308888 342.716578,254.949183 C343.097758,254.974591 343.489103,255 343.860119,255 C348.688401,255 352.861054,251.391989 353.450613,246.457652 L372.479128,84.0768234 C374.105497,76.9878438 375,69.6193703 375,62.0527102 L375,9.67556796 C374.984753,4.32453169 370.659628,0.00508170586 365.31294,0.00508170586 Z" id="Path"></path>
            </g>
        </g>
    </g>
</svg>