<?xml version="1.0" encoding="UTF-8"?>
<svg width="226px" height="150px" viewBox="0 0 226 150" version="1.1" xmlns="http://www.w3.org/2000/svg" xmlns:xlink="http://www.w3.org/1999/xlink">
    <!-- Generator: Sketch 55.2 (78181) - https://sketchapp.com -->
    <title>iconfinder_Chest_Exercises_1761573</title>
    <desc>Created with Sketch.</desc>
    <g id="Page-1" stroke="none" stroke-width="1" fill="none" fill-rule="evenodd">
        <g id="IconLand" transform="translate(-916.000000, -533.000000)" fill-rule="nonzero">
            <g id="iconfinder_Chest_Exercises_1761573" transform="translate(916.000000, 533.000000)">
                <path d="M129.874,59.026 C148.124,59.026 162.918,73.818 162.918,92.067 L162.918,95.921 C162.918,114.17 148.124,128.965 129.874,128.965 L96.487,128.965 C78.239,128.965 63.444,114.17 63.444,95.921 L63.444,92.067 C63.444,73.818 78.239,59.026 96.487,59.026 L129.874,59.026 L129.874,59.026 Z" id="Path" fill="#DEC115"></path>
                <g id="Group">
                    <path d="M95.138,29.947 C96.716,29.992 97.984,28.755 98.022,27.201 C98.06,25.647 96.832,24.355 95.277,24.318 C94.64,24.302 86.643,24.109 77.782,23.961 C79.011,22.669 80.249,21.092 81.404,19.127 C86.145,11.069 88.974,4.273 89.091,3.988 C89.687,2.55 89.003,0.904 87.566,0.309 C86.129,-0.287 84.482,0.398 83.888,1.834 C83.861,1.9 81.093,8.55 76.55,16.273 C72.829,22.599 68.429,23.731 67.999,23.828 C62.932,23.778 58.384,23.771 55.679,23.854 C44.322,24.203 33.281,28.541 25.388,35.757 C24.24,36.806 24.161,38.588 25.21,39.735 C25.764,40.343 26.524,40.651 27.288,40.651 C27.966,40.651 28.647,40.407 29.186,39.914 C36.1,33.593 45.819,29.791 55.852,29.483 C64.697,29.21 94.835,29.94 95.138,29.947 Z" id="Path" fill="#FFFFFF"></path>
                    <path d="M22.557,42.855 C21.252,42.007 19.508,42.376 18.661,43.679 C10.972,55.492 9.343,71.464 13.923,89.946 C9.312,95.117 -6.649,116.066 4.277,148.001 C4.677,149.17 5.771,149.906 6.941,149.906 C7.244,149.906 7.55,149.856 7.854,149.753 C9.324,149.249 10.109,147.649 9.605,146.177 C-1.608,113.406 18.152,93.594 18.994,92.771 C19.726,92.062 20.019,91.015 19.758,90.029 C15.057,72.232 16.275,57.67 23.381,46.75 C24.229,45.447 23.861,43.703 22.557,42.855 Z" id="Path" fill="#FFFFFF"></path>
                    <path d="M212.077,89.474 C218.228,64.68 212.126,49.482 205.84,41.052 C197.913,30.427 184.636,23.821 170.319,23.38 C168.209,23.316 164.974,23.306 161.252,23.329 C160.412,23.156 156.523,22.064 153.116,16.272 C148.585,8.571 145.805,1.899 145.778,1.833 C145.182,0.397 143.536,-0.285 142.099,0.309 C140.662,0.904 139.979,2.551 140.574,3.988 C140.691,4.273 143.52,11.069 148.262,19.127 C149.274,20.848 150.347,22.265 151.422,23.438 C141.372,23.588 131.437,23.828 130.723,23.845 C129.169,23.882 127.942,25.174 127.978185,26.728 C128.016,28.259 129.268,29.475 130.791,29.475 C130.814,29.475 130.838,29.475 130.861,29.474 C131.091,29.469 148.632,29.043 160.886,28.961 C160.954,28.966 161.021,28.971 161.089,28.971 C161.135,28.971 161.178,28.961 161.224,28.958 C164.911,28.936 168.1,28.944 170.144,29.008 C182.76,29.396 194.415,35.156 201.325,44.418 C209.462,55.328 211.162,70.936 206.241,89.556 C205.981,90.542 206.274,91.59 207.006,92.298 C207.213,92.499 227.654,112.793 216.395,145.704 C215.891,147.176 216.675,148.776 218.147,149.28 C218.45,149.384 218.756,149.433 219.059,149.433 C220.23,149.433 221.323,148.697 221.723,147.528 C232.649,115.593 216.688,94.646 212.077,89.474 Z" id="Path" fill="#FFFFFF"></path>
                    <path d="M99.797,105.431 C89.532,105.16 61.687,104.158 56.155,102.774 C49.503,101.112 46.954,93.858 44.528,85.258 C44.105,83.761 42.549,82.891 41.053,83.312 C39.555,83.734 38.686,85.29 39.108,86.787 C40.699,92.427 42.901,100.229 48.286,104.865 L52.056,133.915 C52.239,135.335 53.451,136.369 54.844,136.369 C54.964,136.369 55.087,136.361 55.21,136.346 C56.752,136.146 57.839,134.733 57.638,133.192 L54.385,108.111 C54.524,108.15 54.649,108.203 54.79,108.238 C62.049,110.052 98.116,111.019 99.647,111.06 C99.673,111.061 99.699,111.061 99.724,111.061 C101.244,111.061 102.496,109.849 102.537,108.319 C102.579,106.765 101.351,105.472 99.797,105.431 Z" id="Path" fill="#FFFFFF"></path>
                    <path d="M184.946,83.313 C183.452,82.897 181.895,83.763 181.473,85.259 C179.046,93.859 176.497,101.113 169.845,102.775 C164.316,104.159 136.468,105.162 126.204,105.432 C124.649,105.473 123.423,106.766 123.462,108.32 C123.503,109.85 124.757,111.062 126.276,111.062 C126.301,111.062 126.327,111.062 126.352,111.061 C127.883,111.02 163.952,110.053 171.21,108.239 C171.646,108.13 172.051,107.984 172.462,107.845 L169.143,133.435 C168.942,134.977 170.03,136.389 171.573,136.589 C171.696,136.605 171.817,136.612 171.938,136.612 C173.333,136.612 174.543,135.578 174.727,134.158 L178.596,104.328 C178.61,104.223 178.603,104.12 178.605,104.016 C183.338,99.32 185.393,92.1 186.893,86.787 C187.313,85.291 186.444,83.735 184.946,83.313 Z" id="Path" fill="#FFFFFF"></path>
                    <path d="M112.935,118.226 C111.379,118.226 110.119,119.487 110.119,121.041 L110.119,137.473 C110.119,139.029 111.38,140.289 112.935,140.289 C114.49,140.289 115.749,139.028 115.749,137.473 L115.749,121.041 C115.749,119.487 114.49,118.226 112.935,118.226 Z" id="Path" fill="#283182"></path>
                </g>
            </g>
        </g>
    </g>
</svg>