<?xml version="1.0" encoding="UTF-8"?>
<svg width="226px" height="202px" viewBox="0 0 226 202" version="1.1" xmlns="http://www.w3.org/2000/svg" xmlns:xlink="http://www.w3.org/1999/xlink">
    <!-- Generator: Sketch 55.2 (78181) - https://sketchapp.com -->
    <title>iconfinder_Back_Exercises_1761579</title>
    <desc>Created with Sketch.</desc>
    <g id="Page-1" stroke="none" stroke-width="1" fill="none" fill-rule="evenodd">
        <g id="IconLand" transform="translate(-450.000000, -630.000000)" fill-rule="nonzero">
            <g id="iconfinder_Back_Exercises_1761579" transform="translate(450.000000, 630.000000)">
                <path d="M130.121,39.293 C149.465,39.293 165.15,54.974 165.15,74.321 L165.15,78.405 C165.15,97.753 149.465,113.438 130.121,113.438 L94.726,113.438 C75.38,113.438 59.696,97.752 59.696,78.405 L59.696,74.321 C59.696,54.974 75.38,39.293 94.726,39.293 L130.121,39.293 L130.121,39.293 Z" id="Path" fill="#FFD561"></path>
                <g id="Group" fill="#FFFFFF">
                    <path d="M89.355,24.858 C90.88,24.497 91.825,22.967 91.463,21.441 C91.101,19.915 89.573,18.97 88.045,19.332 C87.956,19.353 84.709,20.119 80.196,21.103 C80.582,20.534 80.97,19.936 81.359,19.274 C86.033,11.327 88.823,4.624 88.94,4.343 C89.54,2.894 88.851,1.234 87.402,0.634 C85.953,0.037 84.293,0.723 83.693,2.171 C83.666,2.237 80.927,8.808 76.464,16.395 C73.31,21.758 70.544,23.004 69.859,23.242 C63.88,24.401 57.9,25.394 54.507,25.498 C43.298,25.843 32.4,30.125 24.61,37.248 C23.452,38.306 23.372,40.102 24.43,41.26 C24.99,41.873 25.757,42.183 26.526,42.183 C27.21,42.183 27.897,41.937 28.442,41.439 C35.244,35.219 44.809,31.478 54.683,31.175 C63.762,30.897 88.314,25.105 89.355,24.858 Z" id="Path"></path>
                    <path d="M21.898,44.239 C20.583,43.382 18.824,43.756 17.969,45.07 C10.386,56.724 8.774,72.473 13.283,90.693 C8.7,95.841 -6.979,116.498 3.784,147.955 C4.187,149.134 5.29,149.875 6.471,149.875 C6.776,149.875 7.086,149.826 7.391,149.721 C8.875,149.214 9.666,147.599 9.158,146.115 C-1.882,113.853 17.568,94.351 18.396,93.542 C19.134,92.827 19.429,91.77 19.167,90.776 C14.536,73.252 15.735,58.916 22.729,48.167 C23.584,46.853 23.212,45.094 21.898,44.239 Z" id="Path"></path>
                    <path d="M88.765,52.966 C87.702,60.242 83.002,79.967 74.149,83.809 C72.711,84.434 72.051,86.105 72.674,87.544 C73.139,88.614 74.184,89.254 75.281,89.254 C75.658,89.254 76.041,89.178 76.409,89.019 C82.265,86.478 87.079,79.675 90.718,68.801 C93.309,61.055 94.341,54.079 94.383,53.785 C94.609,52.233 93.534,50.793 91.983,50.567 C90.43,50.344 88.992,51.415 88.765,52.966 Z" id="Path"></path>
                    <path d="M161.376,188.446 C161.217,188.521 145.171,195.902 113.497,195.902 C87.03,195.902 71.25,190.038 66.718,188.079 C64.027,124.561 60.96,100.349 55.05,95.752 C48.118,90.361 47.295,84.544 46.156,76.494 L45.934,74.936 C45.709,73.384 44.267,72.305 42.717,72.532 C41.165,72.757 40.089,74.197 40.314,75.749 L40.534,77.29 C41.708,85.592 42.817,93.433 51.564,100.235 C52.105,100.655 54.927,104.033 57.42,129.324 C59.198,147.345 60.323,171.088 61.105,189.759 C61.117,190.034 61.179,190.292 61.262,190.541 C61.429,191.34 61.925,192.064 62.703,192.475 C63.407,192.847 80.329,201.582 113.497,201.582 C146.605,201.582 163.124,193.905 163.811,193.578 C165.224,192.906 165.825,191.216 165.155,189.801 C164.485,188.384 162.792,187.78 161.376,188.446 Z" id="Path"></path>
                    <path d="M171.492,26.433 C168.1,26.329 162.12,25.336 156.139,24.177 C155.453,23.939 152.688,22.692 149.535,17.329 C145.073,9.743 142.333,3.171 142.306,3.106 C141.705,1.658 140.046,0.971 138.596,1.569 C137.147,2.169 136.459,3.829 137.058,5.278 C137.175,5.559 139.965,12.262 144.639,20.208 C145.027,20.868 145.414,21.467 145.8,22.038 C141.288,21.054 138.042,20.288 137.952,20.267 C136.425,19.906 134.896,20.851 134.535,22.375 C134.174,23.901 135.118,25.432 136.643,25.792 C137.684,26.039 162.237,31.83 171.316,32.109 C181.19,32.412 190.754,36.152 197.556,42.372 C198.101,42.87 198.788,43.116 199.472,43.116 C200.241,43.116 201.008,42.805 201.568,42.193 C202.627,41.036 202.547,39.24 201.389,38.182 C193.601,31.059 182.704,26.777 171.492,26.433 Z" id="Path"></path>
                    <path d="M212.718,91.627 C217.226,73.407 215.614,57.657 208.03,46.004 C207.175,44.69 205.415,44.317 204.101,45.173 C202.787,46.028 202.415,47.788 203.27,49.102 C210.167,59.7 211.399,74.434 206.834,91.711 C206.571,92.704 206.866,93.762 207.604,94.477 C207.809,94.675 227.928,114.65 216.841,147.051 C216.333,148.535 217.124,150.15 218.608,150.657 C218.913,150.761 219.223,150.811 219.527,150.811 C220.708,150.811 221.81,150.069 222.214,148.89 C232.979,117.432 217.3,96.775 212.718,91.627 Z" id="Path"></path>
                    <path d="M135.282,69.733 C138.92,80.608 143.734,87.411 149.591,89.952 C149.96,90.112 150.342,90.187 150.72,90.187 C151.817,90.187 152.862,89.548 153.326,88.478 C153.95,87.04 153.29,85.367 151.851,84.743 C142.997,80.901 138.299,61.176 137.235,53.9 C137.009,52.349 135.575,51.275 134.016,51.501 C132.465,51.727 131.39,53.168 131.616,54.719 C131.659,55.012 132.69,61.988 135.282,69.733 Z" id="Path"></path>
                    <path d="M183.285,73.465 C181.727,73.24 180.293,74.316 180.068,75.868 L179.845,77.431 C178.705,85.479 177.883,91.295 170.952,96.685 C164.322,101.842 161.362,120.827 159.223,171.924 C159.158,173.49 160.374,174.814 161.941,174.88 C161.982,174.882 162.022,174.882 162.062,174.882 C163.575,174.882 164.832,173.688 164.897,172.161 C165.79,150.831 167.648,106.449 174.439,101.167 C183.184,94.365 184.293,86.526 185.469,78.227 L185.689,76.682 C185.913,75.131 184.836,73.69 183.285,73.465 Z" id="Path"></path>
                    <path d="M112.219,182.278 C112.221,182.278 112.224,182.278 112.226,182.278 C113.791,182.278 115.061,181.011 115.065,179.445 L115.372009,60.821 C115.376,59.253 114.108,57.978 112.54,57.974 C112.537,57.974 112.535,57.974 112.533,57.974 C110.968,57.974 109.697,59.241 109.694,60.807 L109.385995,179.431 C109.383,181 110.651,182.274 112.219,182.278 Z" id="Path"></path>
                </g>
            </g>
        </g>
    </g>
</svg>